<?xml version="1.0" encoding="UTF-8"?>
<svg id="Capa_2" data-name="Capa 2" xmlns="http://www.w3.org/2000/svg" xmlns:xlink="http://www.w3.org/1999/xlink" viewBox="0 0 149.24 155.18">
  <defs>
    <style>
      .cls-1 {
        fill: none;
      }

      .cls-1, .cls-2, .cls-3 {
        stroke-width: 0px;
      }

      .cls-4 {
        clip-path: url(#clippath-1);
      }

      .cls-2 {
        fill: #f9b03d;
      }

      .cls-3 {
        fill: #62c1e3;
      }

      .cls-5 {
        clip-path: url(#clippath);
      }
    </style>
    <clipPath id="clippath">
      <rect class="cls-1" x="44.1" y="84.45" width="105.14" height="63.82"/>
    </clipPath>
    <clipPath id="clippath-1">
      <rect class="cls-1" width="137.39" height="155.18"/>
    </clipPath>
  </defs>
  <g id="Capa_1-2" data-name="Capa 1">
    <g class="cls-5">
      <path class="cls-2" d="M120.81,121.86c4.67-8.14,7.34-17.58,7.34-27.63,0-3.33-.29-6.58-.85-9.74-2.26,12.55-8.94,23.55-18.38,31.37-5.46,4.52-13.59,3.61-17.86-2.05l-7.97-10.55c-1.33-1.75-3.4-2.79-5.6-2.79h-30.4c-2.07.01-3.42,2.2-2.49,4.05l1.21,2.4c2.25,4.47,6.68,7.45,11.67,7.84l1.8.14,7.88.62c2.23.18,4.24,1.41,5.41,3.31l3.57,5.83,2,3.27,11.21,18.3c.2.33.45.61.74.85.82.69,1.94.98,3.02.71h.02c29.07-7.17,51.47-31.24,56.12-61.17-4.08,15.35-14.56,28.11-28.42,35.24"/>
    </g>
    <g class="cls-4">
      <path class="cls-3" d="M70.42,120.15c-.75-1.21-2.04-2.01-3.47-2.12l-9.68-.76c-5.84-.46-11.09-3.99-13.72-9.21l-1.14-2.27c-.81-1.62-.83-3.55.06-5.13.93-1.62,2.6-2.62,4.46-2.68h9.89c-3.17-5-8.89-7.81-14.8-7.26l-10.11.94c-4.33.41-8.22-2.57-9.01-6.84-.59-3.16-1.39-6.46-.9-9.76C28.91,28.56,63.61,23.18,87.22,23.18c-11.39-5.27-25.67-4.6-38.37-1.57,7.43-6.47,23.1-7.91,37.96-7.68,8.7.13,36.51,4.88,50.52,19.25C123.88,13.28,101.11.19,75.28.12,33.92.02.08,33.66.02,74.93c-.02,14.54,4.11,28.1,11.26,39.59.15.25.3.49.45.73l10.02-1.7c4.47-.76,8.16,3.56,6.64,7.84-.04.11-.07.18-.07.18,6.45,2.34,5.36,8.61,5.36,8.61,5.7,2.59,3.35,7.94,3.35,7.94,2.02.83,2.72,2.45,2.9,2.99.09.27.2.54.3.81l3.89,9.98c.67,1.72,2.73,3.12,4.57,3.12,2.33,0,3.94-2.32,3.12-4.5l-1.82-4.84-2.43-6.46c-.17-.45.14-.94.63-.98.32-.02.61.19.74.49l3.2,7.68,2.37,5.68c.81,1.95,2.96,3.08,5,2.49,2.44-.71,3.66-3.45,2.56-5.73h0s-5.86-12.08-5.86-12.08c-.25-.52.09-1.12.67-1.18.33-.03.65.14.81.43l7.13,13.25.88,1.64c.87,1.62,2.78,2.46,4.53,1.88,1.35-.45,2.26-1.58,2.5-2.86.14-.79.05-1.62-.35-2.39l-5.57-10.78c-.25-.48-.06-1.08.43-1.29.44-.18.92,0,1.14.41l6.3,11.87c.51.96,1.27,1.7,2.15,2.2,1.48.82,3.3.93,4.94.16.32-.15.6-.33.87-.52,2.24-1.62,2.93-4.74,1.44-7.18l-13.64-22.27"/>
    </g>
    <path class="cls-2" d="M15.98,124.65l7.88-1.31c2.37-.39,3.96-2.62,3.57-4.98s-2.62-3.96-4.99-3.56l-7.88,1.31c-2.37.39-3.96,2.62-3.57,4.98.39,2.36,2.62,3.95,4.99,3.56"/>
    <path class="cls-2" d="M31.45,126.89c-.39-2.36-2.63-3.95-4.99-3.56l-10.75,2.05c-2.37.39-3.96,2.62-3.58,4.98.39,2.36,2.63,3.96,4.99,3.56l10.75-2.05c2.37-.39,3.96-2.62,3.58-4.98"/>
    <path class="cls-2" d="M35.08,135.81c-.39-2.36-2.63-3.96-4.99-3.56l-7.88,1.31c-2.37.39-3.96,2.62-3.57,4.98.39,2.36,2.62,3.96,4.99,3.56l7.88-1.31c2.37-.39,3.96-2.62,3.58-4.98"/>
    <path class="cls-2" d="M35.56,140.61l-6.47,1.03c-2.37.39-3.96,2.62-3.57,4.98.39,2.36,2.63,3.95,4.99,3.56l6.47-1.02c2.37-.39,3.96-2.62,3.57-4.98-.39-2.36-2.63-3.96-4.99-3.56"/>
  </g>
</svg>