<?xml version="1.0" encoding="UTF-8"?>
<svg id="Capa_2" data-name="Capa 2" xmlns="http://www.w3.org/2000/svg" xmlns:xlink="http://www.w3.org/1999/xlink" viewBox="0 0 376.98 155.08">
  <defs>
    <style>
      .cls-1 {
        fill: none;
      }

      .cls-1, .cls-2, .cls-3 {
        stroke-width: 0px;
      }

      .cls-4 {
        clip-path: url(#clippath-1);
      }

      .cls-2 {
        fill: #f9b03d;
      }

      .cls-3 {
        fill: #62c1e3;
      }

      .cls-5 {
        clip-path: url(#clippath);
      }
    </style>
    <clipPath id="clippath">
      <rect class="cls-1" x="44.1" y="84.42" width="105.14" height="63.8"/>
    </clipPath>
    <clipPath id="clippath-1">
      <rect class="cls-1" width="137.39" height="155.08"/>
    </clipPath>
  </defs>
  <g id="Capa_1-2" data-name="Capa 1">
    <g>
      <path class="cls-3" d="M81.9,55.76c.91-.96,1.44-1.4,1.58-1.33.14.07.07.66-.21,1.76-.19.57-.38,1.01-.54,1.33-.16.31-.58.85-1.25,1.62-.87,1.01-1.57,1.67-2.09,1.99-.53.31-1.25.51-2.15.61-.96.05-1.59,0-1.87-.15-.1-.09-.25-.19-.44-.28-.19-.1-.36-.17-.5-.22-.39-.19-.88-.64-1.48-1.33-.6-.7-1.14-1.46-1.62-2.3-.48-.84-.81-1.55-1.01-2.13-.05-.29-.12-.76-.21-1.4-.09-.65-.16-1.29-.21-1.91-.09-1.39-.19-2.21-.29-2.45-.14-.14-.41-.09-.79.15-.39.19-.55.36-.5.5.05.09.02.12-.07.07-.14-.1-.37,0-.68.32-.31.31-.39.52-.25.61.09.05.07.07-.07.07-.14-.05-.49.19-1.05.72-.55.53-1.04,1.06-1.47,1.58-.24.34-.44.5-.58.5-.14.05-.33.2-.54.44-.21.24-.35.45-.4.64,0,.19-.12.36-.35.5-.24.1-.36.27-.36.51.05.14-.02.36-.21.64-.48.53-1.33,1.83-2.52,3.89-.34.57-.65,1.1-.94,1.58-.29.48-.45.76-.49.86-.15.15-.32.51-.51,1.08-.38,1.01-.72,1.81-1.01,2.38-.29.57-.69,1.32-1.22,2.23-.29.48-.59.98-.91,1.51-.31.53-.51.89-.61,1.08-.05.19-.21.52-.5.97-.29.46-.55.9-.79,1.34-.29.48-.56.95-.82,1.4-.26.46-.45.8-.54,1.04-.24.48-.62,1.04-1.15,1.67-.53.62-.91.93-1.15.93h-.25c-.12,0-.23-.02-.33-.07-.19,0-.33-.09-.43-.29-.05-.14-.24-.26-.58-.36-.28-.09-.48-.21-.58-.35-.09-.33-.28-.67-.58-1.01l-.35-.73.35-1.66c.29-1.48.8-3.22,1.52-5.21.72-2,1.61-4.24,2.66-6.74.19-.43.41-.95.64-1.58.24-.63.46-1.16.65-1.59.19-.38.42-.9.68-1.54.26-.65.49-1.21.68-1.7.24-.53.5-1.14.78-1.83.29-.7.53-1.29.73-1.76.43-.96.83-1.81,1.19-2.56.36-.74.81-1.59,1.34-2.56.19-.38.43-.84.72-1.37.28-.53.52-1.01.72-1.44.19-.38.4-.77.61-1.15.22-.38.38-.6.47-.65.19-.28.29-.48.29-.58,0-.14.12-.21.36-.21.96-.19,1.52-.29,1.68-.29s.33.12.48.36c.24.24.42.36.57.36.19,0,.29.12.29.36s-.1.55-.29.93c-.14.29-.21.55-.21.79,0,.05-.07.23-.21.54-.14.31-.34.66-.58,1.04-.62,1.11-1.21,2.2-1.76,3.28-.55,1.08-.95,2.02-1.19,2.84-.14.39-.41,1.05-.79,1.98-.39.94-.77,1.88-1.15,2.85-.68,1.68-1.14,2.83-1.38,3.46-.24.62-.33.93-.28.93s.14-.11.29-.32c.14-.21.31-.49.5-.82.38-.53.66-.87.82-1.04.17-.17.18-.07.04.31-.05.19-.15.36-.29.5-.05.05-.23.35-.54.91-.31.55-.64,1.11-.97,1.69-.34.58-.58.99-.72,1.22-.34.67-.39.86-.15.58.24-.28.72-1.03,1.44-2.24.43-.67.9-1.41,1.4-2.23.51-.82.93-1.44,1.26-1.87.58-.86,1.37-1.93,2.38-3.2,1.01-1.27,2.01-2.49,2.99-3.64.98-1.15,1.69-1.92,2.12-2.31.77-.67,1.11-1.01,1.01-1.01s-.48.26-1.15.79c-.67.53-1.15.94-1.44,1.22-.43.44-1.03,1.12-1.8,2.05-.77.94-1.53,1.89-2.27,2.88-.74.99-1.36,1.81-1.84,2.48-.39.63-.72,1.09-1.01,1.38-.29.29-.33.24-.14-.15.09-.24.49-.84,1.18-1.8.7-.96,1.48-2,2.34-3.1.86-1.11,1.58-1.99,2.16-2.66.91-1.06,1.68-1.86,2.3-2.41.63-.55,1.2-.95,1.73-1.19.48-.24,1.14-.28,1.98-.11.84.16,1.36.44,1.55.82.24.34.41.53.5.58.28.19.59.53.9,1.01s.54.98.68,1.51c.09.24.21.72.35,1.44.15.72.27,1.49.36,2.3.48,2.69.96,4.18,1.44,4.47.14.09.55.09,1.22,0,.43-.05.8-.14,1.11-.29.31-.14.85-.46,1.62-.94.48-.33,1.01-.73,1.58-1.19.58-.46,1.03-.85,1.37-1.19ZM53.89,58.28c-.19.29-.26.45-.21.5v.11s0,.01,0-.03c0,0,.09-.14.29-.44.09-.19.14-.29.14-.29,0,0-.07.05-.21.15ZM48.42,74.27c.24-.38.21-.43-.07-.15-.19.19-.29.36-.29.5,0,.05.01.07.04.07h.03s.1-.14.29-.43ZM52.74,62.46c.15-.19.34-.54.58-1.04.24-.51.46-1,.65-1.48.19-.48.26-.75.21-.8,0-.04-.12-.07-.36-.07-.19,0-.36.19-.5.58-.05.14-.09.26-.11.36-.02.09-.03.14-.03.14.09,0,.04.14-.15.43-.09.1-.25.39-.47.87-.21.48-.42.96-.61,1.44-.19.48-.29.76-.29.86.05.05.12.02.22-.07.09-.04.14-.02.14.07-.09.19-.19.24-.29.15-.09,0-.19.07-.29.21-.05.09-.16.38-.33.87-.16.48-.37.98-.6,1.51-.96,2.26-1.3,3.29-1.01,3.09.05-.04.08-.05.11-.03.02.02,0,.08-.04.18-.04.14-.14.21-.29.21-.04-.05-.07-.07-.07-.07,0,0,.02.05.07.15.1.09.11.26.04.5-.07.24-.16.33-.26.29-.05,0-.05.07,0,.21.1.19.03.29-.21.29-.14,0-.19.1-.15.29.1.19.05.5-.14.93-.38.82-.36.92.07.29.09-.14.27-.55.54-1.22.26-.67.54-1.39.83-2.16.29-.82.55-1.53.78-2.13.24-.6.39-.92.44-.97.09-.09.19-.27.28-.54.1-.26.17-.52.22-.76.1-.28.19-.55.29-.78.1-.24.17-.36.21-.36.1-.19.15-.36.15-.5,0-.24.12-.55.35-.94ZM54.32,57.63c0-.14-.05-.19-.14-.14-.1.09-.15.19-.15.29.05.24.14.19.29-.15Z"/>
      <path class="cls-3" d="M98.67,52.88c-.43-.1-.8-.16-1.11-.18-.31-.02-.45-.01-.4.03,0,.05.07.24.21.58.14.34.31.75.5,1.23.38,1.06.65,2.07.79,3.03.14.96.17,2.06.07,3.31-.05.81-.12,1.45-.22,1.91-.09.46-.33,1.09-.72,1.91-.48,1.15-1.16,2.31-2.05,3.49-.89,1.18-1.83,2.22-2.84,3.13-.91.81-1.74,1.43-2.49,1.84-.74.41-1.59.73-2.55.96-.48.1-.94.22-1.38.36-.43.14-.72.24-.86.29-.62.29-1.51.26-2.66-.07-.53-.14-1.14-.55-1.83-1.22-.7-.67-1.02-1.18-.97-1.52,0-.14-.22-.48-.65-1.01-.43-.58-.75-1.48-.96-2.7-.22-1.22-.29-2.53-.22-3.93.07-1.39.28-2.59.61-3.6.77-2.12,1.9-4.28,3.39-6.48,1.48-2.21,3.11-4.13,4.89-5.76l1.37-1.22-.5-.72c-.39-.43-.51-.72-.36-.87.1-.14.39-.18.87-.11.48.07.88.23,1.22.47.48.29.92.36,1.3.21.81-.29,1.63-.22,2.44.21.38.19.85.59,1.4,1.19.55.6.81,1.02.76,1.26,0,.34.93.55,2.8.65,1.87.09,4.08.05,6.63-.15,1.58-.1,3.14-.27,4.68-.5,1.54-.24,3.2-.53,4.97-.87h1.44s.13.01.26.04c.12.02.2.03.25.03.15,0,.27.02.36.07.05,0,.08.01.11.04.03.02.04.03.04.03h.03s.06.02.11.07h.07l.07.07s.02.02.07.07c-.09,0-.18.01-.25.04-.07.02-.16.03-.26.03-.86.19-1.27.31-1.22.36.04.05.67-.05,1.87-.29,0,.05.01.07.03.07h.03s.01.07.03.07h.04c0,.19.05.29.15.29,0,.05.01.11.03.18.02.07.03.13.03.18v.79s-.01.11-.03.18c-.02.07-.03.13-.03.18-.05.05-.07.07-.07.07,0,.05-.01.09-.04.12-.02.02-.03.06-.03.11-.05.05-.07.09-.07.14h-.07s-.05.12-.15.21h-.07v.07c-3.46.77-6.89,1.29-10.3,1.55-3.41.26-6.27.28-8.57.03ZM114.08,49.28s0,.07.11.07.28-.02.47-.07c.53-.09.84-.19.94-.28.09-.1-.11-.1-.62,0-.5.09-.8.19-.9.28ZM92.55,65.77c1.15-1.3,2.03-2.71,2.63-4.25.6-1.54.91-3.06.93-4.58.03-1.51-.3-2.82-.97-3.93-.24-.43-.43-.69-.58-.78-.14-.1-.38-.15-.72-.15-.43,0-.72-.07-.86-.21-.05-.1-.22-.19-.51-.29-.19,0-.35-.12-.5-.35-.14-.24-.16-.46-.07-.65,0-.19-.05-.27-.15-.22-.09,0-.42.26-.97.79-.55.53-1.08,1.05-1.58,1.55-.5.51-.75.81-.75.9-.05.05-.14.17-.26.36-.12.19-.3.41-.54.64-.34.29-.85.96-1.52,2.02-.67,1.06-1.33,2.18-1.98,3.38-.65,1.2-1.12,2.16-1.4,2.88-.53,1.35-.9,2.77-1.11,4.26-.22,1.48-.21,2.64.03,3.46.09.29.2.45.32.5.12.05.49.07,1.12.07.53,0,1.03-.07,1.51-.21.48-.14,1.15-.38,2.01-.72,1.15-.53,2.16-1.12,3.03-1.76.86-.65,1.82-1.55,2.88-2.7Z"/>
      <path class="cls-3" d="M184.14,48.63c.09.05-.09.35-.54.9-.45.55-1.06,1.24-1.83,2.05-1.53,1.78-2.06,2.45-1.58,2.01.33-.28.71-.63,1.11-1.04.41-.41.73-.79.97-1.12.53-.67.9-1.03,1.11-1.07.22-.05.16.21-.18.78l-.43.73,1.15-1.15-.07,1.15c-.05.76-.28,1.6-.68,2.52-.41.91-.95,1.73-1.62,2.45-.91.96-1.9,2.04-2.95,3.24-1.06,1.2-1.99,2.29-2.81,3.27-.81.99-1.37,1.72-1.66,2.19-.29.44-.68.95-1.19,1.55-.5.6-.97,1.12-1.4,1.55-.48.39-.89.75-1.22,1.08s-.5.55-.5.64c-.05.15-.44.49-1.15,1.01-.72.53-1.44.98-2.16,1.36-1.2.72-2.29,1.11-3.27,1.15-.99.05-2.13-.19-3.42-.72-.62-.24-1.37-.88-2.24-1.91-.86-1.03-1.56-2.13-2.09-3.28-.14-.33-.25-.66-.32-.96-.07-.31-.11-.76-.11-1.34v-2.66c0-1.11.01-2.11.03-3.03.03-.91.07-1.46.12-1.66.04-.53,0-.79-.15-.79-.09,0-.16-.19-.21-.57-.05-.38-.05-1.18,0-2.38v-2.05c0-.55-.05-.83-.15-.83s-.5.33-1.22.97c-.72.65-1.51,1.42-2.38,2.31-.86.89-1.61,1.71-2.24,2.48-1.48,1.78-2.79,3.45-3.93,5.01-1.13,1.56-1.95,2.91-2.48,4.07-.14.34-.32.73-.54,1.19-.21.46-.4.8-.54,1.04-.14.29-.3.61-.47.94-.16.34-.29.6-.39.79-.29.67-.5,1.09-.62,1.26-.12.16-.27.3-.46.4-.05.05-.17.12-.36.21-.19.09-.36.19-.5.29-.77.57-1.44.26-2.02-.94-.24-.67-.67-1.32-1.29-1.95-.48-.57-.79-1.11-.93-1.62-.14-.51-.21-1.36-.21-2.56,0-.58.06-1.37.17-2.38.12-1.01.26-2.05.43-3.13.17-1.08.35-2.06.54-2.92.24-1.11.4-2.09.47-2.95.07-.86.04-1.34-.11-1.44-.05-.05-.1-.28-.15-.68-.05-.41-.07-.9-.07-1.48s-.01-1.06-.04-1.47c-.02-.41-.06-.62-.11-.62-.05,0-.29.25-.75.76-.46.5-1,1.09-1.62,1.76-2.45,2.83-4.88,5.94-7.31,9.33-2.42,3.38-4.63,6.74-6.62,10.08-1.99,3.33-3.61,6.39-4.86,9.18-.29.62-.59,1.21-.91,1.76-.31.55-.58.92-.82,1.11-.48.48-.72.84-.72,1.08,0,.14-.12.41-.35.79-.24.39-.51.73-.79,1.05-.29.31-.49.44-.59.39-.04,0-.13-.01-.25-.03-.12-.02-.28-.03-.47-.03v-.07c-.33,0-.57-.12-.72-.36-.1-.24-.24-.35-.44-.35-.43,0-.86-.49-1.29-1.48-.43-.98-.65-1.91-.65-2.78,0-.71.37-2.21,1.11-4.49.74-2.28,1.77-5.1,3.09-8.46,1.32-3.36,2.82-6.94,4.5-10.73,1.25-2.83,2.29-5.28,3.13-7.34.84-2.07,1.24-3.12,1.19-3.17-.14-.14-.39-.07-.73.21-.43.34-.64.37-.64.11s.21-.68.64-1.26c.24-.28.58-.76,1.01-1.44.43-.68.87-1.35,1.3-2.02.72-1.15,1.45-2.28,2.19-3.38s1.4-2.02,1.98-2.74c.58-.72.94-1.11,1.08-1.15.33-.09.81-.07,1.44.07.63.14,1.04.34,1.23.58.38.29.7.43.94.43.24.05.39.12.46.22.07.09.08.33.04.72,0,.53.12.79.35.79s.38.12.43.36c.05.24-.05.4-.28.5-.14.09-.31.36-.5.79-.05.19-.23.54-.54,1.05-.31.5-.66,1.01-1.04,1.54-.34.53-.78,1.25-1.34,2.16-.55.91-1.02,1.75-1.4,2.52-.44.87-.92,1.86-1.44,2.96-.53,1.1-1.02,2.18-1.48,3.23-.46,1.06-.82,1.91-1.08,2.56-.26.65-.35.9-.25.76.09-.1.43-.51,1.01-1.23.58-.72,1.2-1.53,1.87-2.44.96-1.2,1.97-2.4,3.03-3.6,1.06-1.2,2.05-2.28,2.99-3.23.93-.96,1.64-1.64,2.13-2.02.38-.24.74-.42,1.07-.54.34-.12.78-.2,1.3-.25.62-.05,1.05-.04,1.29.03.24.07.53.23.87.47.53.43.91.64,1.15.64.38,0,.91.72,1.58,2.16.19.44.33.82.43,1.15.1.34.16.83.18,1.48.03.65.02,1.69-.03,3.13,0,1.39-.02,2.53-.07,3.42-.05.89-.14,1.86-.29,2.91-.14,1.06-.38,2.54-.72,4.46l-.07.79.79-1.15c1.35-2.02,2.82-4,4.43-5.94,1.61-1.95,3.16-3.65,4.64-5.11,1.49-1.47,2.74-2.49,3.74-3.07.43-.28,1.15-.39,2.16-.32,1.01.07,1.68.28,2.02.61.28.24.5.48.64.73,0,.09.09.29.29.58.29.34.49.77.61,1.29.12.53.19,1.39.21,2.59.03,1.2.04,2.98.04,5.33-.09,4.61-.02,7.61.21,9l.21,2.02.79.07c.48.05,1.19-.14,2.13-.57.93-.43,1.86-.96,2.77-1.58.67-.48,1.57-1.23,2.7-2.24,1.13-1.01,2.36-2.16,3.68-3.46,1.32-1.3,2.6-2.59,3.85-3.88,1.25-1.3,2.33-2.47,3.24-3.53,1.87-2.21,3.27-3.81,4.21-4.79.94-.98,1.46-1.45,1.55-1.4ZM107.82,81.61c.14-.38.14-.65,0-.79-.19-.19-.29-.02-.29.5.05.39.09.59.12.62.02.02.08-.09.17-.33ZM111.2,71.67c.24-.62.45-1.17.62-1.65.16-.48.25-.75.25-.79-.04-.19-.2-.06-.46.4-.27.46-.4.8-.4,1.04,0,.29-.07.51-.21.65-.19.19-.36.65-.5,1.37-.09.34-.22.68-.39,1.05-.17.36-.31.63-.4.82-.14.24-.35.69-.61,1.37-.26.67-.51,1.32-.75,1.95-.24.62-.36,1-.36,1.15,0,.09.12-.11.36-.61.24-.51.55-1.16.93-1.98.39-.82.76-1.66,1.12-2.52.36-.86.63-1.61.82-2.24ZM118.33,55.04c.58-1.25,1.07-2.31,1.48-3.2.41-.89.59-1.34.54-1.34s-.22.22-.5.65c-.29.43-.62.95-1.01,1.58-.77,1.3-1.38,2.42-1.84,3.36-.46.94-.66,1.5-.61,1.69.05.05-.06.38-.32,1.01-.26.62-.55,1.25-.87,1.87-.31.62-.52.96-.61,1.01-.1,0-.15.14-.15.43,0,.05-.07.27-.21.65-.14.39-.34.82-.58,1.29-.19.48-.38.94-.54,1.37-.16.44-.27.77-.31,1.01-.1.53-.22.82-.36.87-.1.05-.18.34-.26.87-.07.53-.06.79.04.79,0,0,.12-.27.36-.82.24-.55.52-1.22.86-1.99.53-1.29,1.01-2.43,1.44-3.41.43-.98.92-2.06,1.44-3.24.53-1.18,1.2-2.65,2.02-4.43ZM125.75,52.16l.5-.79-.65.72c-.34.34-.55.56-.65.68-.09.12-.07.18.08.18s.38-.26.72-.79ZM127.91,49.43c.14-.24.19-.36.14-.36-.09,0-.21.12-.35.36-.05.09-.1.18-.15.26-.05.07-.07.11-.07.11.15,0,.29-.12.44-.36Z"/>
      <path class="cls-3" d="M219.77,58.64c.43,0,.36.26-.21.79-.44.34-.7.75-.79,1.23,0,.43-.1.64-.29.64-.14,0-.21.07-.21.22,0,.05-.19.31-.58.79-.39.48-.87,1.03-1.44,1.65-.57.63-1.06,1.18-1.48,1.66-.41.48-.61.74-.61.79,0,.1-.18.34-.54.73-.36.38-.76.79-1.22,1.22-.46.43-.88.81-1.26,1.15-.38.34-.59.48-.64.43s-.1-.05-.15,0c-.05.05-.07.12-.07.21,0,.29-.46.82-1.37,1.59-.91.76-2.01,1.56-3.28,2.38-1.27.81-2.41,1.44-3.41,1.86-1.49.63-2.78.99-3.85,1.09-1.08.09-2.1-.08-3.06-.51-.44-.19-.88-.49-1.34-.9-.46-.41-.71-.75-.75-1.05,0-.14-.19-.41-.58-.79-.86-.72-1.29-1.92-1.29-3.6,0-.63.08-1.39.25-2.3.17-.91.35-1.54.54-1.87.05-.1.14-.34.29-.73.14-.38.28-.79.43-1.22.38-1.01.82-2.13,1.29-3.35.48-1.22.98-2.38,1.48-3.46.51-1.08.9-1.91,1.19-2.48l1.01-1.95-.72.5c-.53.34-1.06.86-1.58,1.58-.48.82-.96,1.25-1.44,1.29-.29.05-.64.24-1.05.58-.41.34-1.02.91-1.84,1.73-.57.57-1.1,1.06-1.58,1.48-.48.41-.77.61-.87.61-.19,0-.28.12-.28.35,0,.19-.13.48-.4.87-.26.39-.4.48-.4.29,0-.05-.05-.02-.15.07s-.19.24-.29.43c-.09.19-.33.52-.72.97-.39.46-.77.95-1.15,1.48-.43.48-1.03,1.21-1.8,2.19-.77.99-1.49,1.93-2.16,2.85-1.06,1.35-1.86,2.37-2.42,3.07-.55.69-1.03,1.24-1.44,1.65-.41.41-.92.87-1.55,1.4-.91.82-1.57,1.3-1.98,1.44-.41.14-.83.09-1.26-.15-.48-.24-.81-.45-1.01-.64-.14-.24-.28-.36-.43-.36s-.24-.14-.29-.43c-.05-.29-.02-.46.07-.5.19-.1.17-.22-.07-.36-1.3-1.01-1.32-2.78-.07-5.33.24-.38.45-.73.62-1.04.16-.31.27-.47.32-.47.14,0,.2.06.18.18-.03.12-.23.56-.62,1.33-.33.67-.59,1.42-.75,2.24-.17.81-.18,1.34-.04,1.58.14.19.21.17.21-.07,0-.1.05-.28.15-.54.09-.26.19-.54.29-.82.34-.58.45-1.06.35-1.44-.04-.19-.02-.4.08-.64.09-.24.35-.65.78-1.23.48-.67.77-1.14.87-1.4.09-.26-.03-.25-.36.04-.24.14-.35.14-.35,0s.07-.22.21-.22c.05,0,.14-.09.26-.28.12-.19.25-.38.39-.58.24-.58.56-1.11.94-1.58.34-.38.72-.89,1.15-1.51.43-.63.74-1.11.93-1.44.34-.53.75-1.13,1.23-1.8.48-.68.92-1.28,1.33-1.81.41-.53.64-.82.68-.87.19-.19.29-.38.29-.57,0-.1.11-.33.32-.68.21-.36.49-.76.83-1.19.81-.91,1.22-1.46,1.22-1.66-.05-.1.32-.63,1.11-1.58.79-.96,1.76-2.09,2.92-3.39,1.39-1.44,2.25-2.23,2.59-2.38.14,0,.36-.08.64-.25.29-.17.53-.35.73-.54,1.06-1.01,2.26-1.34,3.6-1.01.28.05.57.14.86.26.29.12.46.22.5.32.1.05.24.16.44.33.19.16.38.29.58.39.24.19.46.44.68.73.22.29.42.62.62,1.01.19.34.37.62.54.87.17.24.3.4.4.5.1.05.22.14.36.29.14.14.26.26.36.35.33.34.6.5.79.5.24,0,.45.28.64.83.19.55.29,1.09.29,1.62,0,.34-.06.78-.18,1.34-.12.55-.3,1.16-.54,1.83-.19.53-.44,1.2-.73,2.02-.29.81-.53,1.48-.72,2.01-.19.58-.48,1.38-.87,2.42-.38,1.03-.76,2.02-1.15,2.99-1.44,3.55-2.16,6.14-2.16,7.78,0,.57.02.93.07,1.08.05.14.19.24.44.29.86.24,2.06,0,3.6-.73,1.78-.81,3.43-1.74,4.96-2.77,1.54-1.03,3.32-2.41,5.34-4.14,1.11-1.06,1.75-1.49,1.95-1.29.04.05.27-.08.68-.4.41-.31.93-.78,1.55-1.4,1.39-1.39,2.11-1.97,2.16-1.73.14.19.05.46-.29.79-.29.29-.43.51-.43.65.04,0,.2-.11.46-.32.27-.22.57-.5.91-.83.72-.81,1.27-1.27,1.65-1.37.34-.09.53-.24.58-.43.1-.28.32-.6.65-.93.33-.34.57-.51.72-.51ZM177.8,61.66c-.1,0-.15.07-.15.21,0,.34.17.26.5-.21.19-.28.22-.45.07-.5-.14-.1-.21-.03-.21.21,0,.19-.07.29-.21.29ZM187.09,60.8c.14.19.26.24.35.15s.1-.27,0-.5c-.05-.29-.16-.34-.35-.15-.14.1-.14.27,0,.5ZM190.76,55.76c.14-.19-.51.43-1.95,1.87-1.06,1.06-2,2.07-2.85,3.03-.84.96-1.23,1.44-1.19,1.44.05,0,.31-.26.79-.79.48-.53,1.06-1.15,1.73-1.87,1.63-1.78,2.57-2.66,2.8-2.66.29,0,.39-.07.29-.21,0-.19.12-.46.36-.79ZM193.35,50c.24-.58.43-1.07.58-1.48.14-.41.21-.64.21-.68-.05-.05-.34.14-.9.58-.55.43-1.11.9-1.69,1.4-.58.51-.96.86-1.15,1.05-.19.24-.36.35-.5.35s-.17-.09-.07-.29c.05-.19,0-.26-.14-.21-.14.05-.21.22-.21.5,0,.19-.23.58-.68,1.15-.46.58-1.31,1.54-2.56,2.88-.39.39-.89.97-1.52,1.76-.62.79-1.2,1.52-1.72,2.19-.53.72-1.01,1.37-1.44,1.95-.43.58-.69.91-.79,1.01-.19.19-.5.65-.93,1.37-.44.72-.91,1.5-1.41,2.34-.5.84-.93,1.59-1.29,2.27-.36.67-.54,1.05-.54,1.15,0,.19.16.14.47-.17.31-.31.97-1.07,1.98-2.27,1.92-2.3,3.18-3.76,3.78-4.39.6-.63.92-.73.97-.3,0,.19.05.15.15-.14.19-.24.19-.46,0-.65-.1-.14.52-.96,1.87-2.45.91-.96,1.5-1.57,1.79-1.83.29-.26.56-.37.8-.33.38.05.48-.05.29-.29-.14-.14-.12-.35.07-.61.19-.26.74-.85,1.66-1.76.68-.67,1.17-1.2,1.48-1.58.31-.38.58-.75.79-1.11.22-.36.45-.82.68-1.4Z"/>
      <path class="cls-2" d="M260.89,68.86c.28-.53.49-.79.61-.79s.23.24.32.72c.24.91.1,1.37-.43,1.37-.24.05-.27-.07-.07-.36.1-.19.15-.29.15-.31,0-.03-.07,0-.21.1l-.33.33c-.16.16-.34.32-.54.46-.24.29-.6.63-1.08,1.01-.48.38-1.44,1.15-2.88,2.3-.34.29-.67.58-1.01.87-.34.29-.55.48-.64.58-.1.09-.29.26-.58.5-.29.24-.55.48-.79.72-.24.19-.72.58-1.44,1.15-.72.57-1.5,1.22-2.34,1.94-.84.72-1.61,1.37-2.33,1.95-.72.58-1.2.99-1.44,1.22-.09.15-.34.38-.75.69-.41.31-.85.66-1.34,1.04-1.01.77-1.51,1.27-1.51,1.51.05.05.05.1,0,.15-.05.05-.12.05-.21,0-.24-.1-.29,0-.15.29.14.24.12.35-.07.35-.15,0-.22-.07-.22-.21-.05-.09-.22-.04-.54.15-.31.19-.66.48-1.05.86-.43.34-.8.64-1.11.9s-.45.45-.4.54c.09.19,0,.24-.29.14-.24,0-.53.17-.87.51-.09.14-.16.25-.21.32-.05.07-.05.08,0,.03.28-.24.36-.26.21-.07-.14.19-.41.45-.79.78-.53.53-.77.82-.72.87.05,0,.32-.2.82-.61.51-.41,1.01-.84,1.51-1.29.51-.46.76-.71.76-.76,0-.14.19-.36.58-.64.24-.19.38-.28.43-.26.05.02.05.15,0,.4,0,.34-.36.77-1.08,1.29-.68.53-.94.86-.79,1.01.09.1.69-.24,1.8-1.01.43-.33.92-.72,1.47-1.15.55-.43,1-.77,1.34-1.01,2.02-1.39,3.65-2.56,4.9-3.52,1.25-.96,1.9-1.49,1.95-1.58.09-.19.38-.48.86-.87.48-.38.75-.53.79-.44.24.19-.31.93-1.66,2.2-1.34,1.27-3.31,2.92-5.9,4.93-.63.53-1.28,1.06-1.95,1.58-.67.53-1.13.91-1.37,1.15-.91.87-2.07,1.79-3.46,2.75-1.39.96-2.82,1.88-4.29,2.77-1.46.89-2.81,1.64-4.03,2.26-1.22.63-2.17,1.01-2.84,1.15-2.64.48-4.13.67-4.46.58-.29-.1-.58-.15-.87-.15-.19,0-.57-.17-1.12-.5-.55-.34-1.1-.76-1.66-1.26-.55-.5-.94-.92-1.18-1.25-.39-.58-.7-.99-.94-1.23-.62-.67-1.15-1.88-1.58-3.63-.43-1.75-.6-3.45-.51-5.08.05-.67.15-1.51.29-2.52.14-1.01.31-2.02.5-3.03.19-1.01.36-1.85.5-2.52.1-.28.19-.63.29-1.04.1-.41.17-.71.21-.91.15-.62.45-1.64.9-3.05.46-1.42.97-2.98,1.55-4.68.58-1.7,1.14-3.33,1.69-4.89.55-1.56,1-2.8,1.34-3.71.28-.77.63-1.72,1.04-2.85.41-1.13.79-2.1,1.12-2.92.33-.81.69-1.69,1.08-2.62.38-.94.67-1.65.86-2.13.19-.53.48-1.25.87-2.16.38-.91.74-1.78,1.08-2.59.33-.81.65-1.57.93-2.27.29-.7.46-1.09.51-1.19.24-.33.38-.6.43-.79.1-.19.33-.72.68-1.58.36-.86,1-2.3,1.91-4.32.24-.53.47-.98.68-1.37.22-.38.35-.58.4-.58.1,0,.15-.12.15-.35,0-.1.31-.79.93-2.09.63-1.3,1.4-2.83,2.31-4.61,1.06-2.02,1.8-3.48,2.23-4.4.43-.91.7-1.54.79-1.87.1-.33.1-.62,0-.87-.14-.43-.12-.98.07-1.65.19-.68.6-1.61,1.23-2.81.28-.53.71-1.22,1.29-2.09.58-.86,1.2-1.75,1.87-2.66.68-.91,1.31-1.73,1.91-2.45.6-.72,1.07-1.22,1.4-1.51.14-.14.56-.05,1.26.29.7.34,1.21.7,1.55,1.08.33.34.51.55.54.65.03.09-.06.24-.25.43-.24.24-.24.4,0,.5.19.19.43.24.72.14.28,0,.5.07.64.21.05.1-.01.33-.18.69-.16.36-.35.69-.57,1.01-.21.31-.4.44-.54.4-.19-.05-.21.09-.07.43.14.24-.12.89-.79,1.95-1.2,2.06-2.59,4.5-4.15,7.31-1.56,2.81-3.06,5.63-4.49,8.46-.48.91-.9,1.74-1.26,2.48-.36.74-.59,1.16-.68,1.26-.05.05-.19.31-.43.79-.24.48-.51,1.03-.79,1.65-.29.63-.58,1.23-.87,1.81-.29.57-.48.95-.58,1.15-.29.34-.43.6-.43.79,0,.05-.05.16-.15.33-.09.16-.19.37-.28.61-.24.48-.36.84-.36,1.08,0,.05-.15.39-.44,1.01-.29.62-.64,1.34-1.07,2.15-.39.77-.77,1.55-1.15,2.34-.39.79-.62,1.36-.72,1.69-.15.39-.35.94-.62,1.66-.26.72-.52,1.38-.76,1.98-.24.6-.4.97-.49,1.11-.77,1.25-1.32,2.5-1.66,3.74-.19.72-.54,1.8-1.05,3.24-.5,1.44-.97,2.74-1.4,3.88-.24.48-.46.96-.65,1.44-.24.34-.35.6-.35.79,0,.34-.19.96-.58,1.87-.19.43-.35.86-.47,1.29-.12.44-.2.72-.25.87,0,.19-.07.49-.22.9-.14.41-.31.83-.5,1.26-.43,1.01-.69,1.82-.79,2.44-.05.24-.16.71-.35,1.41-.19.69-.41,1.42-.65,2.19-.19.77-.39,1.46-.58,2.05-.19.6-.26.95-.21,1.04,0,.19-.05.48-.14.87-.1.29-.22.8-.36,1.55-.14.74-.29,1.51-.44,2.3-.14.79-.24,1.48-.28,2.05-.19,1.92-.22,3.54-.07,4.86.14,1.32.43,2.17.87,2.56.33.29,1.13.29,2.38,0,1.25-.29,2.69-.82,4.32-1.59.71-.33,1.32-.65,1.83-.93.51-.29,1.08-.66,1.73-1.12.65-.46,1.5-1.07,2.56-1.83.67-.48,1.28-.9,1.83-1.26.55-.36.85-.54.9-.54.19,0,.38-.14.58-.43.1-.14.4-.42.9-.82.51-.41,1.07-.86,1.69-1.34,1.44-1.11,2.59-1.99,3.46-2.66.87-.67,1.35-1.06,1.44-1.15.05-.09.31-.32.79-.68.48-.36,1.03-.78,1.66-1.26.67-.48,1.29-.96,1.87-1.44s.96-.81,1.15-1.01c.24-.19.52-.45.86-.76.33-.31.65-.56.94-.75.76-.53,1.15-.84,1.15-.94-.05-.05.05-.17.29-.36.1-.04.22-.11.36-.21.14-.1.26-.2.36-.3.14-.14.41-.38.79-.72.38-.33.86-.74,1.44-1.22.1-.1.42-.39.97-.87.55-.48,1.17-1.03,1.84-1.66,1.3-1.2,2.1-1.92,2.41-2.15.31-.24.49-.27.54-.08,0,.1-.35.5-1.05,1.2s-1.95,1.88-3.78,3.56c-.63.62-1.23,1.13-1.8,1.51-.19.14-.42.33-.68.54-.26.21-.49.42-.68.61-.39.38-.65.57-.79.57-.15.15-.2.25-.15.29,0,.19-.1.29-.29.29s-.46.26-.79.79c-.34.53-.65.79-.93.79-.14,0-.34.09-.58.26-.24.16-.48.37-.72.61-.53.53-.84.79-.94.79-.05,0-.16.07-.33.22-.16.14-.37.31-.6.49-.19.19-.53.47-1.01.83-.48.36-.96.73-1.44,1.11-.48.34-.86.62-1.15.87-.29.24-.4.39-.35.43,0,.05.11.01.32-.11.21-.12.44-.28.68-.47.28-.24.56-.41.82-.54.26-.12.45-.21.54-.26.24,0,.4-.09.5-.28.04-.05.29-.24.75-.58.46-.33.95-.72,1.48-1.15.63-.48,1.4-1.09,2.31-1.83.91-.75,1.84-1.49,2.77-2.24.93-.75,1.75-1.42,2.44-2.02.7-.6,1.14-.99,1.34-1.19s.43-.41.72-.64c.29-.24.55-.46.79-.65.29-.19.53-.36.73-.5.19-.14.31-.24.35-.29.15-.24.46-.56.94-.97.48-.41.77-.61.87-.61.24-.09.47-.36.72-.79ZM214.52,88.38c0-.53-.05-.74-.15-.65-.09.1-.14.41-.14.94.14.76.24.67.29-.29ZM218.05,82.61c0-.24-.02-.38-.07-.43s-.09-.04-.12.04c-.02.07,0,.15.04.25,0,.29.05.33.15.14ZM217.76,80.31c-.05.24-.06.35-.04.33.03-.03.11-.21.26-.54.24-.38.36-.7.36-.94,0-.14-.1-.12-.29.07-.19.19-.34.29-.44.29-.14.14-.21.26-.21.36-.05.05-.05.08,0,.11.05.02.09,0,.14-.04.15-.09.22.03.22.36ZM218.48,80.74c.24-.09.29-.21.14-.35,0-.19-.07-.22-.21-.07-.09.1-.14.22-.14.36,0,.19.07.21.21.07ZM218.48,78.59c.19-.19.22-.34.07-.44-.05-.05-.12.07-.21.36-.05.24,0,.26.14.07ZM219.56,75.27c.19-.67.36-1.23.5-1.69.14-.46.19-.71.15-.76-.05,0-.16.23-.33.68-.16.46-.36,1-.58,1.62-.21.62-.39,1.19-.54,1.69-.14.5-.21.8-.21.9.04.19.13.13.25-.18.12-.31.37-1.07.76-2.27ZM220.43,71.96s.07-.07.21-.35c.14-.29.27-.61.4-.97.12-.36.18-.56.18-.61l-.15-.15s-.18.31-.4.94c-.21.62-.3,1-.25,1.15ZM222.8,67.36c.14-.48.19-.73.14-.73-.05,0-.15.21-.32.62-.17.41-.33.84-.47,1.29-.14.46-.21.73-.21.82,0,.14.09,0,.29-.43.19-.43.38-.96.58-1.58ZM223.23,66.2c.1-.09.15-.21.15-.36s-.07-.16-.22-.07c-.09.09-.14.21-.14.35,0,.19.07.22.21.07ZM224.02,64.11c.48-1.15.57-1.59.29-1.29-.05.05-.16.26-.33.64-.16.39-.32.77-.46,1.15-.14.39-.21.62-.21.72.09.24.33-.16.72-1.22ZM224.81,61.81c.14-.19.17-.33.07-.43-.05-.05-.12.05-.21.29-.05.19-.06.29-.04.29.03,0,.09-.05.18-.15ZM226.04,58.64c.14-.09.21-.21.21-.35-.05-.14-.12-.17-.21-.07-.19.09-.24.24-.15.43,0,.19.05.19.15,0ZM227.34,53.46c.28-.48.33-.73.14-.73-.05,0-.19.29-.43.87-.24.58-.47,1.17-.68,1.76-.21.6-.32.97-.32,1.11,0,.19.17-.09.5-.86.33-.77.5-1.2.5-1.29,0-.19.09-.48.29-.87ZM228.42,52.45c.24-.34.35-.6.35-.79-.05-.38-.19-.17-.43.64l-.21.79.29-.64ZM228.42,51.15c.14-.38.26-.71.35-1,.1-.29.12-.46.07-.51,0-.05-.11.14-.32.58-.21.44-.42.88-.61,1.34-.19.45-.29.73-.29.82.04.19.11.19.21,0,.1-.19.29-.6.59-1.23ZM230.79,47.48c.05-.09.13-.35.25-.78.12-.43.18-.7.18-.8,0-.09-.07,0-.21.29-.14.29-.31.62-.5,1.01-.19.39-.34.76-.44,1.12-.09.36-.14.59-.14.68s.05.09.14,0,.17-.27.22-.51c.24-.57.4-.91.5-1.01ZM233.24,39.49c.24-.28.31-.48.21-.58,0-.09-.1.05-.29.44-.1.29-.15.43-.15.43,0,0,.07-.09.22-.29ZM236.05,33.87c.1-.38.11-.55.03-.5-.07.05-.18.27-.32.65-.09.19-.15.33-.18.4-.02.07,0,.08.04.03.09-.05.18-.13.25-.25.07-.12.13-.23.18-.33ZM234.32,31.86c-.1.09-.15.21-.15.35.05.15.09.2.14.15.05-.05.1-.17.15-.36,0-.19-.05-.24-.14-.14ZM233.53,33.58c-.19.1-.24.22-.15.36,0,.09.07.12.21.07.1-.1.15-.24.15-.44,0-.04-.02-.08-.07-.1-.05-.03-.1,0-.14.1ZM232.38,35.74c-.72,1.25-.94,1.87-.65,1.87.1-.09.15-.16.15-.21,0-.09.06-.27.17-.54.12-.26.26-.56.4-.91l.57-1.22-.64,1.01ZM231.01,38.62c-.14.39-.14.51,0,.36s.26-.38.36-.72c.14-.33.14-.43,0-.29-.05.05-.11.15-.18.29-.07.14-.13.26-.18.35ZM226.69,48.85c-.96,1.78-1.58,3-1.87,3.68-.29.67-.33,1.05-.14,1.15.09.05.34-.32.75-1.11.41-.79.76-1.6,1.05-2.42.19-.58.47-1.2.82-1.87.36-.67.57-.91.62-.72,0,.19-.05.34-.15.43-.14.05-.17.17-.07.36.05.05.03.17-.07.36-.1.05-.15.24-.15.57s-.1.61-.29.79c-.19.19-.39.6-.58,1.23-.19.62-.33.93-.43.93-.14,0-.35.36-.61,1.08-.26.72-.37,1.2-.32,1.44,0,.19.02.29.07.29.05,0,.17-.17.36-.5.19-.48.36-.63.5-.44.14.19.31.02.5-.5.1-.28.29-.78.58-1.47.28-.7.61-1.43.96-2.2.36-.77.64-1.37.83-1.8.14-.43.29-.65.44-.65.14.1.09.27-.15.5-.09.29-.12.46-.07.5.05.05.25-.28.61-1.01.36-.72.76-1.58,1.19-2.59.43-1.01.82-1.92,1.15-2.74.29-.81.35-1.11.18-.9-.16.21-.44.78-.82,1.69-.44.96-.83,1.84-1.2,2.63-.36.79-.58,1.24-.68,1.33-.05.1.02-.15.21-.75.19-.6.33-.99.43-1.19.15-.24.27-.55.36-.94,0-.28-.36.34-1.08,1.87-.34.67-.65,1.32-.94,1.95-.29.62-.48,1.05-.57,1.29-.19.34-.29.5-.29.5,0,0,.02-.14.07-.43.14-.48.42-1.18.82-2.09.41-.91.81-1.78,1.22-2.59.41-.82.64-1.23.68-1.23.15,0,.27-.09.36-.29.05-.1.06-.16.03-.18-.02-.02-.06.01-.11.11-.14.1-.24.1-.29,0,0-.09.12-.39.36-.9.24-.51.49-1.01.76-1.51.26-.51.44-.78.54-.83.19-.09.22-.21.07-.35-.1-.14-.02-.45.25-.93.26-.48.47-.68.62-.59.24,0,.38-.07.43-.21.09-.14.19-.19.29-.14.09.05.33-.26.72-.9.38-.65.63-1.14.73-1.48.09-.24,0-.14-.26.29-.26.43-.52.86-.76,1.29-.19.48-.31.66-.36.54-.05-.12.03-.45.22-.97.14-.38.21-.61.21-.68s-.07.01-.21.26c-.05.19-.15.4-.29.61-.14.21-.26.42-.36.61-.14.39-.29.58-.43.58-.05-.09.02-.35.21-.78.19-.43.42-.85.68-1.26.26-.41.42-.59.47-.54.09,0,.27-.2.54-.61.26-.41.5-.86.72-1.34.22-.48.31-.79.26-.93-.09-.29-.05-.44.15-.44.09,0,.14-.14.14-.43,0-.33.12-.67.36-1.01.24-.29.45-.65.64-1.08.1-.19.24-.52.44-.97.19-.46.38-.92.57-1.4.24-.48.43-.9.58-1.26.14-.36.19-.56.15-.61-.05-.05-.38.41-.97,1.37-.6.96-1.14,1.92-1.62,2.88-.38.81-.55,1.37-.5,1.66.15.29.08.43-.21.43-.24.09-.4.29-.5.58-.05.14-.1.31-.15.5-.05.19-.12.34-.21.43-.19.29-.46.81-.82,1.55-.36.74-.73,1.52-1.11,2.34-.39.81-.71,1.52-.97,2.12-.26.6-.4.95-.4,1.05,0,.24-.15.35-.44.35-.24.05-.33-.12-.28-.5.04-.24.05-.35.03-.35-.02,0-.13.1-.32.29-.1.09-.31.45-.62,1.08-.31.62-.59,1.25-.86,1.87-.26.62-.4.98-.4,1.08s.09.11.28.03c.19-.07.36-.2.51-.4.14-.19.22-.27.25-.25.03.02.04.18.04.46-.1.44-.17.65-.22.65-.09,0-.14.1-.14.29s-.09.44-.26.75c-.16.31-.3.42-.4.32-.09-.09-.05-.33.15-.72.19-.43.24-.69.14-.79-.05-.09-.2.04-.46.4-.26.36-.51.74-.73,1.15-.21.41-.35.73-.4.97-.09.43-.16.64-.21.64-.14,0-.21.22-.21.65-.05.14-.1.33-.15.54-.05.21-.12.37-.21.46ZM224.31,54.68c-.24.34-.31.55-.21.65,0,.14.07.07.21-.21.14-.29.21-.53.21-.73,0-.09-.02-.1-.07-.03-.05.07-.09.18-.14.32ZM221.43,62.09c-.14,0-.3.28-.47.83-.16.55-.2.87-.11.97.1.05.17-.03.21-.22,0-.33.17-.74.5-1.22.53-.72.6-1.2.22-1.44-.1-.09-.15.05-.15.44.1.43.03.64-.21.64ZM220.57,64.4c-.34.24-.34.35,0,.35.14,0,.21-.09.21-.29,0-.04-.02-.08-.07-.1-.05-.03-.09-.02-.14.03ZM220.28,65.48c-.14.05-.21.14-.21.29.14.14.24.21.29.21.09,0,.14-.09.14-.29,0-.14-.07-.21-.21-.21ZM218.77,67.5c-.05.24,0,.27.14.07.1-.24.12-.39.07-.44-.05-.04-.12.08-.21.36ZM218.69,68.07s-.09.14-.26.58c-.16.43-.34.95-.54,1.55-.19.6-.36,1.14-.5,1.62-.14.48-.21.74-.21.79,0,.14.11-.06.32-.61.21-.55.44-1.24.68-2.05.33-1.11.5-1.73.5-1.87ZM215.02,82.11c-.05.34-.01.42.11.26.12-.17.23-.45.32-.83.05-.24.07-.45.07-.64v-.29c-.05-.09-.11-.03-.18.18-.07.21-.18.66-.32,1.33ZM214.66,84.13l-.07.58.21-.65c.14-.28.21-.6.21-.93v-.22l-.15.22c-.05.09-.08.24-.11.43-.02.19-.06.39-.11.58ZM215.89,89.17c0-.29-.02-.44-.07-.44-.05-.04-.09-.03-.11.04-.02.07-.01.15.03.25,0,.39.05.44.15.15ZM215.53,86.43c.1-.81.27-1.77.5-2.88.24-1.11.51-2.2.79-3.27.29-1.08.54-1.97.76-2.66.21-.7.37-1.02.47-.97.14,0,.12.31-.07.93-.19.91-.18,1.11.03.58.22-.53.57-1.61,1.05-3.24.33-1.06.73-2.25,1.19-3.6.46-1.35.89-2.61,1.29-3.78.41-1.18.71-2.01.9-2.49.19-.33.31-.48.36-.43s.02.19-.07.43c-.09.19-.27.65-.54,1.37-.26.72-.49,1.41-.68,2.05-.19.65-.29,1-.29,1.05.04.05.47-.99,1.29-3.1.48-1.34.79-2.26.93-2.77.15-.51.17-.83.07-.97-.05-.14-.01-.43.11-.86.12-.43.25-.87.4-1.29.14-.43.26-.65.36-.65.09,0,.02.43-.21,1.29-.29.86-.45,1.36-.47,1.48-.02.12.04.09.18-.11.19-.14.29-.31.29-.5,0-.1.06-.32.17-.65.12-.33.28-.72.47-1.15.19-.43.35-.82.47-1.18.12-.36.16-.57.11-.62,0-.09.09-.28.29-.58.19-.24.24-.45.14-.64-.09-.1-.19-.03-.28.21-.19.39-.27.44-.22.15.05-.29.17-.73.36-1.3.43-1.29.36-1.51-.21-.64-.19.39-.29.43-.29.14.09-.38.03-.49-.18-.32-.21.16-.39.49-.54.97-.15.48-.31.81-.48,1.01-.16.19-.27.17-.31-.07,0-.28.07-.5.21-.64.19-.24.21-.43.07-.58-.34-.33-.77.43-1.29,2.3-.24.77-.43,1.23-.58,1.37-.09.09-.12.33-.07.72.05.39.12.58.22.58.24,0,.29-.12.14-.35,0-.19.07-.42.21-.68.15-.26.29-.42.44-.47,0,0,.01.04.03.11.03.07.04.15.04.25.14.24.09.36-.15.36-.09,0-.14.1-.14.29.09.19-.02.68-.33,1.48-.31.79-.61,1.41-.9,1.84-.24.38-.35.74-.35,1.08.09.29.07.43-.07.43-.05,0-.15.16-.29.47-.14.31-.26.68-.36,1.11-.09.44-.19.81-.29,1.12-.09.31-.19.46-.28.46-.15,0-.17.14-.07.43,0,.24-.1.56-.29.94-.19.19-.31.29-.36.29-.05,0-.07-.12-.07-.36-.05-.28,0-.5.14-.64.09-.1.14-.27.14-.5-.05-.1-.02-.28.07-.54.1-.26.19-.52.29-.76.24-.53.36-.86.36-1.01s-.05-.21-.15-.21c-.19.19-.53,1.04-1.01,2.52-.19.67-.38,1.29-.54,1.87-.16.57-.29.91-.39,1.01,0,.09-.02.24-.07.43-.05.19-.12.41-.21.65-.1.48-.22.96-.36,1.44-.14.48-.26.76-.36.86-.09.05-.26.48-.5,1.3-.24.81-.47,1.63-.68,2.44-.21.81-.3,1.27-.25,1.37.09.14.21-.02.35-.5.15-.43.29-.72.44-.87.09,0,.13.11.11.33-.02.21-.13.78-.32,1.68-.15.58-.2.87-.15.87.1,0,.1.1,0,.29-.05.1-.11.32-.18.65-.07.34-.15.7-.25,1.08-.29,1.63-.49,2.9-.59,3.81-.09.91-.09,1.71,0,2.38l.14,1.37.07-1.65c.05-.48.09-1.02.14-1.62.05-.6.1-1.09.15-1.48ZM221.94,65.27c-.29.72-.53,1.28-.72,1.69-.19.41-.26.54-.21.4.04-.24.21-.8.49-1.69.29-.89.6-1.73.94-2.52.33-.79.53-1.19.58-1.19.09-.05.07.14-.07.58-.14.43-.48,1.34-1.01,2.74ZM242.53,85.79c-.05-.1.13-.29.54-.58.41-.29.64-.41.68-.36.1.1-.05.29-.43.58-.53.39-.79.51-.79.36ZM258.15,74.77c0-.1.09-.32.29-.65.19-.33.41-.65.64-.93.24-.29.39-.41.44-.36.1.05.02.34-.25.87s-.52.86-.76,1.01c-.24.14-.36.17-.36.07ZM257.51,74.91c.19-.14.19-.05,0,.29-.19.39-.29.63-.29.73.04.09-.1.34-.44.75-.34.41-.55.64-.64.68-.14,0-.21-.07-.21-.21,0-.1.21-.45.64-1.05.43-.6.75-.99.94-1.19Z"/>
      <path class="cls-2" d="M273.77,73.9s-.3.4-.9,1.05c-.6.65-1.38,1.38-2.34,2.19-.48.48-1.15,1-2.01,1.55-.86.55-1.69,1.02-2.48,1.4-.79.39-1.33.58-1.62.58h-1.08c-2.26.09-4.2-.92-5.83-3.03-.24-.33-.45-.64-.64-.9-.19-.26-.29-.42-.29-.47,0-.14.05-.55.15-1.22.09-.67.23-1.45.4-2.33.16-.89.33-1.74.5-2.56.16-.82.29-1.42.39-1.81.1-.24.2-.56.3-.97.09-.41.19-.75.28-1.05.1-.28.22-.66.36-1.11.14-.46.26-.85.35-1.19.15-.38.33-.88.54-1.48.21-.6.42-1.14.61-1.62.19-.53.41-1.08.64-1.66.24-.58.44-1.01.59-1.29.14-.29.37-.76.68-1.4.31-.65.61-1.29.91-1.91.67-1.39,1.18-2.45,1.54-3.17.36-.72.68-1.29.94-1.72.26-.43.54-.87.82-1.3.48-.67.81-1.08.97-1.22.17-.14.42-.24.76-.29.28-.05.56-.01.82.11.26.12.68.38,1.26.76l1.37.87.07.86c0,.24-.05.52-.14.83-.09.31-.19.59-.29.82-.14.24-.31.57-.5.97-.19.41-.39.78-.58,1.11-.14.34-.34.73-.58,1.19-.24.46-.43.81-.58,1.05-.14.29-.35.68-.61,1.19-.26.51-.52.97-.75,1.4-.24.48-.49.94-.76,1.38-.26.43-.45.76-.54,1-.09.19-.24.48-.43.87-.19.39-.36.75-.5,1.08-.14.34-.29.67-.44,1.01-.14.34-.26.55-.35.65-.39.72-.81,1.71-1.26,2.95-.46,1.25-.88,2.51-1.26,3.78-.38,1.27-.64,2.34-.79,3.21-.14.67-.29,1.01-.43,1.01-.24,0-.36.1-.36.29,0,.09.07.12.22.07.19-.09.31-.04.35.15.05.19,0,.39-.14.58-.1.09-.1.48,0,1.15l.07.87.94-.21c1.15-.19,3.02-1.41,5.62-3.67,1.39-1.15,2.88-2.56,4.46-4.21,1.58-1.65,3.17-3.42,4.75-5.29,1.58-1.87,3.07-3.74,4.46-5.58,1.4-1.85,2.57-3.56,3.53-5.15.33-.53.65-.99.93-1.4.29-.41.46-.62.51-.62.14,0,.38-.31.72-.93.33-.58.53-.84.58-.79.1.05.06.25-.11.61-.17.36-.36.71-.58,1.05-.21.34-.39.53-.54.57-.24,0-.29.07-.15.21.1.05.05.26-.14.62-.19.36-.44.75-.73,1.19-.29.48-.54.9-.75,1.26-.21.36-.32.56-.32.61.04.09.16-.03.35-.36.1-.14.21-.31.32-.5.12-.19.21-.31.26-.36.05-.09.16-.27.32-.54.17-.26.35-.56.54-.9.43-.72.74-1.19.93-1.4.19-.22.31-.23.36-.04.05.14,0,.34-.15.58-.09.05-.27.27-.54.65-.26.38-.52.79-.76,1.22-.29.43-.66,1-1.11,1.72-.46.72-.9,1.41-1.34,2.05-.43.65-.79,1.17-1.07,1.55-.19.29-.29.53-.29.72-.05.19-.04.27.03.22.07-.05.2-.17.4-.36.24-.29.59-.74,1.05-1.34.46-.6.9-1.22,1.33-1.87.43-.65.8-1.21,1.11-1.69.31-.48.45-.74.4-.79-.09-.09-.07-.14.07-.14.1.05.23-.09.4-.4.17-.31.21-.52.11-.62-.09-.14-.02-.33.21-.57l.29-.51.07.73c0,.39-.12.87-.36,1.44-.24.57-.73,1.5-1.48,2.77-.74,1.27-1.88,3.11-3.41,5.5-.39.63-.76,1.2-1.12,1.73-.36.53-.84,1.17-1.44,1.91-.6.74-1.45,1.79-2.56,3.13-.77.91-1.46,1.71-2.05,2.38-.6.67-1,1.06-1.19,1.15-.19.05-.29.19-.29.43ZM280.97,61.88c-.24-.05-.35,0-.35.15s.17.21.5.21c.14-.05.25-.08.32-.11.07-.03.11-.04.11-.04-.05,0-.12-.02-.22-.07-.09-.05-.21-.1-.35-.15ZM271.32,38.77c-.19-.1-.25-.26-.18-.47.08-.21.31-.71.68-1.48.43-.72,1.05-1.64,1.84-2.77.79-1.13,1.63-2.23,2.52-3.31.89-1.08,1.65-1.91,2.28-2.49.91-.81,1.52-1.25,1.83-1.29.31-.05.64.29.97,1.01.33.63.43,1.06.29,1.3-.14.29-.21.57-.21.86,0,.14-.11.4-.33.76-.21.36-.44.71-.68,1.05-.77,1.01-1.42,1.95-1.95,2.85-.53.89-1.06,1.81-1.58,2.76-.67,1.35-1.2,2.26-1.58,2.74-.39.48-.67.62-.87.44-.05-.05-.16-.07-.33-.07h-.54c-.48,0-.89-.19-1.22-.58-.14-.19-.28-.37-.4-.54-.12-.17-.18-.28-.18-.33-.05-.04-.1-.11-.15-.21-.05-.1-.12-.17-.21-.22Z"/>
      <path class="cls-2" d="M328.21,56.26l.21.65c.24.77.25,1.51.03,2.2-.21.69-.8,1.71-1.76,3.05-.34.48-.66.95-.94,1.4-.29.46-.45.78-.5.97-.1.29-.29.65-.58,1.08-.29.29-.43.53-.43.72,0,.15-.35.63-1.05,1.44-.69.81-1.48,1.68-2.38,2.59-.89.91-1.64,1.63-2.27,2.16-.91.82-1.56,1.23-1.95,1.23-.24,0-.5.1-.79.29-.24.19-.72.1-1.44-.26-.72-.36-1.44-.85-2.16-1.48-.58-.48-1.26-1.32-2.05-2.52-.79-1.2-1.38-2.31-1.76-3.32-.34-.86-.61-1.68-.83-2.45-.21-.77-.39-1.68-.54-2.74-.14-1.06-.31-2.45-.5-4.17-.14-1.39-.28-2.59-.4-3.6-.12-1.01-.2-1.54-.25-1.59,0,0-.09.05-.26.15-.17.09-.38.24-.61.43-1.06.82-2.34,2.01-3.85,3.57-1.51,1.56-3.1,3.32-4.76,5.29-1.66,1.97-3.26,3.97-4.82,6.01-1.56,2.04-2.92,3.96-4.1,5.76-1.18,1.8-2.03,3.32-2.56,4.57-.96,2.35-1.72,3.48-2.3,3.38-.33,0-.74-.24-1.23-.72-.48-.48-.76-.93-.86-1.37-.1-.43-.29-.7-.58-.79-.58-.1-.87-.75-.87-1.95s.31-2.76.93-4.68c.24-.72.76-2.17,1.55-4.35.79-2.19,1.85-4.84,3.17-7.96,1.32-3.12,2.88-6.46,4.68-10.01,1.8-3.55,3.83-7.01,6.09-10.37.1.19.29.39.58.58.33.14.5.41.5.79s.07.65.22.79c.14.14.16.26.07.36-.05.14.1.34.44.58.09.09.22.26.39.5.17.24.28.48.33.72.09.34.12.6.07.79-.05.19-.26.53-.64,1.01-.34.48-.99,1.61-1.95,3.39-.96,1.78-1.96,3.74-3.02,5.91-.39.81-.83,1.79-1.34,2.91-.5,1.13-.99,2.23-1.48,3.32-.48,1.08-.86,1.98-1.15,2.7-.29.72-.43,1.11-.43,1.15,0,.05.33-.33,1.01-1.12.68-.79,1.47-1.74,2.38-2.84,3.31-4.08,5.11-6.12,5.39-6.12.05,0,.28-.2.68-.61.41-.41.87-.9,1.4-1.48.53-.58,1.01-1.11,1.44-1.59.53-.67,1.25-1.33,2.16-1.98.91-.65,1.54-.95,1.87-.9.43,0,1.01.18,1.72.54.72.36,1.11.66,1.15.9,0,.09.09.27.29.54.19.26.41.54.65.83.38.38.64.74.78,1.08.15.34.27.91.36,1.72.1.48.21,1.31.32,2.48.12,1.18.23,2.34.33,3.5.19,2.26.41,4.06.64,5.4.24,1.34.53,2.37.87,3.09.24.48.45.75.61.82.17.07.59.13,1.26.18.91,0,1.78-.24,2.59-.72,1.78-1.11,4.3-3.46,7.56-7.06.72-.81,1.35-1.49,1.91-2.05s.86-.81.91-.76c.14,0,.16-.07.07-.21-.09-.15.12-.53.65-1.15l.79-.94-.36.87-.43.79.58-.72.5-.65Z"/>
      <path class="cls-2" d="M376.09,58.5l.43.79c.33.53.49.94.46,1.23-.02.29-.22.76-.6,1.44-.77,1.2-1.67,2.33-2.71,3.38-1.04,1.06-2.29,2.11-3.78,3.17-.77.53-1.23.88-1.37,1.05-.14.16.14,0,.87-.47.67-.43.99-.61.96-.54-.02.07-.37.37-1.04.9-1.34,1.01-3.01,2.06-5.01,3.17-1.99,1.11-4.03,2.12-6.12,3.03-2.09.91-4,1.63-5.72,2.16-.72.19-1.47.4-2.24.64-.76.24-1.34.41-1.72.5-.34.1-.96.22-1.87.36-.91.14-1.8.26-2.66.36-1.39.14-2.45.21-3.17.21s-1.66-.07-2.81-.21c-2.88-.38-5.23-.94-7.05-1.66-.77-.29-1.51-.65-2.2-1.08-.69-.43-1.04-.72-1.04-.87s-.14-.26-.43-.36c-.29-.09-.7-.52-1.23-1.29l-.93-1.15-.44,1.07c-.34.72-.55,1.34-.64,1.87-.05.24-.15.56-.29.94-.14.39-.29.72-.43,1.01-.24.48-.52,1.18-.83,2.09-.31.91-.61,1.92-.9,3.03-.05.24-.14.56-.29.94-.14.38-.26.72-.36,1.01-.14.24-.3.64-.46,1.22-.17.58-.3,1.13-.4,1.66-.1.48-.24,1.04-.44,1.69-.19.65-.33,1.17-.43,1.55-.33.86-.61,1.75-.82,2.66-.22.91-.35,1.71-.4,2.38l-.15,1.15.79.35c.39.19.61.35.68.47.07.12.11.47.11,1.05,0,.67-.12,1.12-.36,1.36-.19.19-.38.29-.57.29s-.51-.1-.94-.29c-.72-.29-1.21-.52-1.48-.68-.26-.16-.51-.42-.75-.75-.38-.48-.67-.73-.87-.73-.33-.05-.62-.45-.87-1.22-.24-.77-.36-1.61-.36-2.52,0-.82.17-2.13.51-3.93.34-1.8.72-3.52,1.15-5.15.34-1.2.79-2.68,1.37-4.43.58-1.75,1.14-3.46,1.7-5.11.55-1.65.99-2.91,1.33-3.78.24-.48.51-1.12.82-1.91s.57-1.5.76-2.12c.24-.68.54-1.45.9-2.31.36-.86.66-1.6.9-2.23.29-.58.53-1.11.72-1.58.19-.48.29-.75.29-.79,0-.15.12-.39.36-.73.24-.28.31-.52.21-.72,0-.1.05-.17.14-.21.15,0,.22-.09.22-.29,0-.14.13-.57.4-1.29.26-.72.57-1.49.93-2.3.36-.82.64-1.4.83-1.73.09-.14.31-.56.64-1.26.33-.7.67-1.45,1.01-2.27.38-.86.88-1.95,1.48-3.27.6-1.32,1.14-2.48,1.62-3.5.43-.96.81-1.82,1.15-2.59.34-.77.51-1.18.51-1.22,0-.1.05-.22.14-.36.09-.14.19-.31.29-.5.28-.33.48-.77.58-1.29.09-.43.5-1.41,1.22-2.92.72-1.51,1.64-3.31,2.77-5.39,1.13-2.09,2.31-4.24,3.56-6.44,1.25-2.21,2.42-4.23,3.53-6.05.67-1.06,1.25-1.93,1.72-2.62.48-.7.75-1.02.8-.98.09.1.24-.16.43-.79.1-.24.18-.46.26-.68.07-.22.13-.35.17-.4,0-.09-.09-.04-.28.15-.19.14-.29.21-.29.21,0,0,.05-.07.14-.21l.21-.21.15-.15c.09,0,.28-.09.58-.29.28-.19.55-.12.79.21.19.44.53.61,1.01.51.38,0,.58.12.58.35,0,.19.09.29.29.29.38-.05.73.23,1.04.83.31.6.33.97.04,1.11-.1.09-.48.65-1.15,1.66-1.25,2.01-2.22,3.57-2.92,4.68-.69,1.11-1.17,1.92-1.44,2.45s-.47.99-.61,1.37c-.15.34-.33.73-.54,1.19-.21.46-.42.88-.61,1.26-.19.34-.42.79-.68,1.37-.26.57-.52,1.1-.76,1.58-.19.48-.42,1.02-.68,1.62-.26.6-.52,1.09-.75,1.48-.48.81-.87,1.56-1.15,2.24-.29.67-.41,1.08-.36,1.22.1.14.05.21-.14.21-.1,0-.19.02-.26.07-.07.05-.08.1-.03.14,0,.05-.1.28-.29.68-.19.41-.43.88-.72,1.41-.24.53-.49,1.08-.76,1.66-.26.57-.44.98-.54,1.22-.05.29-.22.69-.51,1.22-.29.53-.57,1.01-.86,1.44-.68,1.2-1.3,2.56-1.87,4.1-.24.68-.48,1.3-.73,1.88-.24.57-.4.93-.5,1.07-.29.29-.43.51-.43.65,0,.05-.1.3-.29.76-.19.45-.43.96-.72,1.54-.29.63-.57,1.25-.83,1.88-.26.62-.44,1.1-.54,1.44-.05.29-.17.65-.36,1.08-.19.43-.36.79-.5,1.08-.19.43-.46,1.04-.79,1.83-.34.79-.67,1.61-1.01,2.45-.34.84-.61,1.56-.83,2.16-.21.6-.3.92-.25.97.09.05.57-.21,1.44-.79.87-.58,1.94-1.36,3.21-2.34,1.27-.98,2.6-2.05,3.99-3.2,1.4-1.15,2.67-2.24,3.82-3.24,1.68-1.49,3.39-3.1,5.11-4.82s3.36-3.43,4.89-5.11c1.54-1.68,2.81-3.14,3.82-4.39.48-.63.99-1.34,1.52-2.13s.97-1.5,1.33-2.12c.36-.63.49-.94.4-.94-.05-.05-.07-.24-.07-.58.05-.28-.05-.38-.28-.29-.1.05-.12.03-.07-.07.05-.1.17-.24.35-.44l.73-.72-.65.35c-.53.34-.75.39-.65.15.1-.24.46-.6,1.09-1.08,1.29-1.06,2.11-2.09,2.44-3.09.15-.48.36-.76.65-.83.28-.07.55.09.79.47.19.39.24.58.14.58s0,.1.29.29c.24.09.38.25.43.47.05.21.1.63.15,1.25.05.63.04,1.11-.03,1.44-.07.34-.25.84-.54,1.51-.34.86-.84,1.9-1.51,3.1-.67,1.2-1.39,2.4-2.16,3.6-.77,1.2-1.47,2.21-2.09,3.03-.53.72-1.3,1.66-2.31,2.81-1.01,1.15-2,2.25-2.99,3.31-.99,1.06-1.72,1.8-2.19,2.23-.19.15-.41.34-.65.59s-.45.43-.64.57c-.91.91-1.6,1.59-2.05,2.02-.46.43-.95.93-1.48,1.51-.96.96-2.13,2.04-3.53,3.24-1.39,1.2-2.8,2.35-4.21,3.46-1.41,1.1-2.65,2.02-3.7,2.77-1.06.74-1.73,1.11-2.01,1.11-.05,0-.22.07-.51.21-.29.14-.62.31-1.01.5l-1.22.65,1.66.72c1.68.72,3.5,1.29,5.47,1.7,1.97.41,3.89.61,5.76.61.81,0,1.88-.05,3.2-.14,1.32-.1,2.58-.23,3.78-.4,1.2-.17,2-.31,2.38-.4.15-.05.33-.09.54-.14.21-.05.39-.1.54-.15.19-.05.4-.09.61-.14.22-.05.42-.1.62-.15.19-.04.4-.09.61-.14s.42-.1.61-.15c1.49-.38,3.33-1.06,5.51-2.05,2.18-.98,4.31-2.08,6.38-3.28,1.87-1.15,3.52-2.28,4.96-3.38,1.44-1.11,2.64-2.19,3.6-3.24.38-.43.71-.79,1-1.07s.46-.41.51-.36c.05.05.19-.1.43-.44l.36-.5-.43.43c-.29.29-.44.38-.44.26s.17-.42.5-.9l.44-.79ZM318.55,79.23l.07-.64-.29.57c-.28.63-.61,1.52-.96,2.67-.36,1.15-.72,2.41-1.08,3.78-.36,1.37-.69,2.68-.97,3.93-.29,1.24-.48,2.27-.58,3.09-.15,1.06-.21,1.81-.18,2.27.02.46.11.23.25-.68.05-.33.14-.75.26-1.25.12-.51.21-.93.26-1.27.09-.38.21-.89.35-1.54.14-.65.26-1.26.36-1.84.14-.58.25-1.08.32-1.51.07-.43.11-.68.11-.73-.09-.14-.04-.31.15-.5.14-.14.28-.44.4-.9.12-.46.13-.8.03-1.04,0-.15.05-.22.14-.22.1.05.25-.2.44-.75.19-.55.4-1.18.61-1.87.21-.7.32-1.21.32-1.55ZM320.42,74.56c.34-.91.6-1.7.79-2.38.19-.68.27-1.06.22-1.15-.05-.24-.11-.29-.18-.14-.07.14-.23.5-.47,1.07-.19.44-.37.94-.54,1.52-.17.57-.3,1.05-.4,1.44-.24,1.01-.46,1.56-.65,1.66-.19.1-.35.37-.47.8-.12.43-.13.72-.03.86.09.19.25.06.47-.4.21-.46.63-1.55,1.25-3.27ZM324.67,63.61c.19-.53.5-1.34.93-2.45.43-1.11.94-2.33,1.52-3.67.58-1.35,1.13-2.66,1.66-3.93s.97-2.34,1.33-3.2c.36-.87.57-1.35.62-1.44.14-.14.28-.44.43-.9.14-.46.27-.89.4-1.29.12-.41.16-.62.11-.62s-.16.18-.33.54c-.16.36-.37.8-.6,1.33-.19.48-.44,1.01-.73,1.59-.29.57-.5,1-.64,1.29-.14.29-.47,1.01-.97,2.16-.51,1.15-1.05,2.42-1.62,3.81-.58,1.35-1.15,2.72-1.73,4.11-.58,1.39-.99,2.35-1.22,2.88-.72,1.63-1.26,3.1-1.62,4.4-.36,1.29-.45,1.94-.26,1.94.14,0,.14-.07,0-.21-.05-.14-.03-.21.07-.21.15,0,.34-.3.59-.9.24-.6.35-1.02.35-1.26,0-.29.19-.77.58-1.44.19-.28.4-.68.61-1.18.21-.51.39-.95.54-1.34ZM370.32,66.13c.67-.57,1.23-1.07,1.69-1.51.46-.43.61-.65.47-.65-.09,0-.33.19-.72.58-.34.29-1.05.81-2.13,1.55-1.08.74-2.26,1.52-3.53,2.34-1.27.81-2.41,1.48-3.41,2.01-.77.39-1.46.75-2.05,1.08-.6.34-.95.55-1.05.65-.34.19-.15.16.54-.11.7-.27,1.58-.64,2.63-1.12.72-.38,1.56-.86,2.52-1.44.96-.58,1.91-1.18,2.85-1.8.93-.63,1.67-1.16,2.19-1.59Z"/>
      <g class="cls-5">
        <path class="cls-2" d="M120.81,121.86c4.67-8.14,7.34-17.58,7.34-27.63,0-3.32-.29-6.58-.85-9.74-2.26,12.54-8.94,23.55-18.38,31.37-5.46,4.52-13.59,3.61-17.86-2.05l-7.97-10.55c-1.33-1.75-3.4-2.79-5.6-2.79h-30.4c-2.07.01-3.42,2.2-2.49,4.05l1.21,2.4c2.25,4.47,6.68,7.45,11.67,7.84l1.8.14,7.88.62c2.23.18,4.24,1.41,5.41,3.31l3.57,5.83,2,3.27,11.21,18.3c.2.33.45.61.74.85.82.69,1.94.97,3.02.71h.02c29.07-7.17,51.47-31.24,56.12-61.17-4.09,15.35-14.56,28.11-28.42,35.24"/>
      </g>
      <g class="cls-4">
        <path class="cls-3" d="M70.42,120.15c-.75-1.21-2.04-2.01-3.46-2.12l-9.68-.76c-5.84-.46-11.09-3.99-13.72-9.21l-1.14-2.27c-.82-1.62-.83-3.55.06-5.13.93-1.62,2.6-2.62,4.46-2.68h9.89c-3.17-5-8.89-7.81-14.8-7.26l-10.11.94c-4.33.41-8.22-2.58-9.01-6.84-.59-3.16-1.39-6.46-.9-9.76C28.91,28.56,63.61,23.18,87.21,23.18c-11.39-5.27-25.66-4.6-38.37-1.57,7.43-6.46,23.1-7.9,37.96-7.68,8.7.13,36.51,4.88,50.52,19.25C123.88,13.28,101.11.19,75.28.12,33.92.02.08,33.65.02,74.93c-.02,14.53,4.11,28.1,11.26,39.59.15.25.3.49.45.73l10.02-1.69c4.47-.76,8.16,3.56,6.64,7.84-.04.11-.07.18-.07.18,6.45,2.34,5.36,8.61,5.36,8.61,5.7,2.59,3.35,7.94,3.35,7.94,2.02.83,2.72,2.45,2.9,2.99.09.27.2.54.3.81l3.89,9.98c.67,1.72,2.73,3.12,4.57,3.12,2.33,0,3.94-2.32,3.12-4.5l-1.82-4.84-2.43-6.46c-.17-.45.14-.95.63-.98.32-.02.61.19.74.49l3.2,7.68,2.37,5.68c.81,1.95,2.96,3.08,5,2.49,2.44-.71,3.66-3.45,2.56-5.73h0s-5.86-12.08-5.86-12.08c-.25-.52.09-1.12.67-1.18.33-.03.65.14.81.43l7.13,13.25.88,1.64c.87,1.62,2.78,2.46,4.53,1.88,1.36-.45,2.26-1.58,2.51-2.87.14-.78.05-1.62-.35-2.39l-5.57-10.78c-.25-.48-.06-1.08.43-1.29.44-.18.93,0,1.14.41l6.3,11.88c.51.96,1.27,1.7,2.15,2.2,1.48.82,3.3.93,4.94.16.32-.15.6-.33.87-.52,2.24-1.62,2.93-4.73,1.44-7.18l-13.64-22.27"/>
      </g>
      <path class="cls-2" d="M15.98,124.65l7.88-1.31c2.37-.39,3.96-2.62,3.57-4.98-.39-2.36-2.63-3.96-4.99-3.56l-7.88,1.31c-2.37.39-3.96,2.62-3.57,4.98.39,2.36,2.62,3.95,4.99,3.56"/>
      <path class="cls-2" d="M31.45,126.89c-.39-2.36-2.62-3.95-4.99-3.56l-10.75,2.05c-2.37.39-3.96,2.62-3.58,4.98.39,2.36,2.63,3.96,4.99,3.56l10.75-2.05c2.37-.39,3.96-2.62,3.57-4.98"/>
      <path class="cls-2" d="M35.08,135.81c-.39-2.36-2.63-3.96-4.99-3.56l-7.88,1.31c-2.37.39-3.96,2.62-3.57,4.98.39,2.36,2.62,3.96,4.99,3.56l7.88-1.31c2.37-.39,3.96-2.62,3.58-4.98"/>
      <path class="cls-2" d="M35.56,140.61l-6.47,1.03c-2.37.39-3.96,2.62-3.57,4.98s2.62,3.95,4.99,3.56l6.47-1.02c2.37-.39,3.96-2.63,3.57-4.98-.39-2.36-2.63-3.96-4.99-3.56"/>
    </g>
  </g>
</svg>